<svg xmlns="http://www.w3.org/2000/svg" viewBox="0 0 680 278" width="100%">
  <rect width="680" height="278" fill="#140E06"/>
  <polygon points="180,114 212,130 180,146 148,130" fill="#3D2410" stroke="#5C3820" stroke-width="0.5"/><polygon points="212,130 244,146 212,162 180,146" fill="#3D2410" stroke="#5C3820" stroke-width="0.5"/><polygon points="244,146 276,162 244,178 212,162" fill="#2A1A10" stroke="#5C3820" stroke-width="0.5"/><polygon points="276,162 308,178 276,194 244,178" fill="#3D2410" stroke="#5C3820" stroke-width="0.5"/><polygon points="308,178 340,194 308,210 276,194" fill="#3D2410" stroke="#5C3820" stroke-width="0.5"/><polygon points="340,194 372,210 340,226 308,210" fill="#2A1A10" stroke="#5C3820" stroke-width="0.5"/><polygon points="372,210 404,226 372,242 340,226" fill="#3D2410" stroke="#5C3820" stroke-width="0.5"/><polygon points="212,98 244,114 212,130 180,114" fill="#3D2410" stroke="#5C3820" stroke-width="0.5"/><polygon points="244,114 276,130 244,146 212,130" fill="#3D2410" stroke="#5C3820" stroke-width="0.5"/><polygon points="276,130 308,146 276,162 244,146" fill="#2A1A10" stroke="#5C3820" stroke-width="0.5"/><polygon points="308,146 340,162 308,178 276,162" fill="#3D2410" stroke="#5C3820" stroke-width="0.5"/><polygon points="340,162 372,178 340,194 308,178" fill="#3D2410" stroke="#5C3820" stroke-width="0.5"/><polygon points="372,178 404,194 372,210 340,194" fill="#2A1A10" stroke="#5C3820" stroke-width="0.5"/><polygon points="404,194 436,210 404,226 372,210" fill="#3D2410" stroke="#5C3820" stroke-width="0.5"/><polygon points="244,82 276,98 244,114 212,98" fill="#3D2410" stroke="#5C3820" stroke-width="0.5"/><polygon points="276,98 308,114 276,130 244,114" fill="#3D2410" stroke="#5C3820" stroke-width="0.5"/><polygon points="308,114 340,130 308,146 276,130" fill="#2A1A10" stroke="#5C3820" stroke-width="0.5"/><polygon points="340,130 372,146 340,162 308,146" fill="#4A2D15" stroke="#5C3820" stroke-width="0.5"/><polygon points="372,146 404,162 372,178 340,162" fill="#3D2410" stroke="#5C3820" stroke-width="0.5"/><polygon points="404,162 436,178 404,194 372,178" fill="#2A1A10" stroke="#5C3820" stroke-width="0.5"/><polygon points="436,178 468,194 436,210 404,194" fill="#3D2410" stroke="#5C3820" stroke-width="0.5"/><polygon points="276,66 308,82 276,98 244,82" fill="#2A1A10" stroke="#5C3820" stroke-width="0.5"/><polygon points="308,82 340,98 308,114 276,98" fill="#2A1A10" stroke="#5C3820" stroke-width="0.5"/><polygon points="340,98 372,114 340,130 308,114" fill="#2A1A10" stroke="#5C3820" stroke-width="0.5"/><polygon points="372,114 404,130 372,146 340,130" fill="#2A1A10" stroke="#5C3820" stroke-width="0.5"/><polygon points="404,130 436,146 404,162 372,146" fill="#2A1A10" stroke="#5C3820" stroke-width="0.5"/><polygon points="436,146 468,162 436,178 404,162" fill="#2A1A10" stroke="#5C3820" stroke-width="0.5"/><polygon points="468,162 500,178 468,194 436,178" fill="#2A1A10" stroke="#5C3820" stroke-width="0.5"/><polygon points="308,50 340,66 308,82 276,66" fill="#3D2410" stroke="#5C3820" stroke-width="0.5"/><polygon points="340,66 372,82 340,98 308,82" fill="#3D2410" stroke="#5C3820" stroke-width="0.5"/><polygon points="372,82 404,98 372,114 340,98" fill="#2A1A10" stroke="#5C3820" stroke-width="0.5"/><polygon points="404,98 436,114 404,130 372,114" fill="#3D2410" stroke="#5C3820" stroke-width="0.5"/><polygon points="436,114 468,130 436,146 404,130" fill="#3D2410" stroke="#5C3820" stroke-width="0.5"/><polygon points="468,130 500,146 468,162 436,146" fill="#2A1A10" stroke="#5C3820" stroke-width="0.5"/><polygon points="500,146 532,162 500,178 468,162" fill="#3D2410" stroke="#5C3820" stroke-width="0.5"/><polygon points="340,34 372,50 340,66 308,50" fill="#3D2410" stroke="#5C3820" stroke-width="0.5"/><polygon points="372,50 404,66 372,82 340,66" fill="#3D2410" stroke="#5C3820" stroke-width="0.5"/><polygon points="404,66 436,82 404,98 372,82" fill="#2A1A10" stroke="#5C3820" stroke-width="0.5"/><polygon points="436,82 468,98 436,114 404,98" fill="#3D2410" stroke="#5C3820" stroke-width="0.5"/><polygon points="468,98 500,114 468,130 436,114" fill="#3D2410" stroke="#5C3820" stroke-width="0.5"/><polygon points="500,114 532,130 500,146 468,130" fill="#2A1A10" stroke="#5C3820" stroke-width="0.5"/><polygon points="532,130 564,146 532,162 500,146" fill="#3D2410" stroke="#5C3820" stroke-width="0.5"/>
</svg>